<?xml version="1.0" encoding="UTF-8"?>
<svg id="Layer_1" xmlns="http://www.w3.org/2000/svg" version="1.1" viewBox="0 0 229.5 112.9">
  <!-- Generator: Adobe Illustrator 29.8.1, SVG Export Plug-In . SVG Version: 2.1.1 Build 2)  -->
  <defs>
    <style>
      .st0 {
        fill-rule: evenodd;
      }

      .st0, .st1 {
        fill: #1d58a4;
      }
    </style>
  </defs>
  <path class="st1" d="M177.43,63.91c-31.84,1.72-89.03,0-120.48,0v-1.62c32.79-.19,87.79,0,120.38,0,0-.86-.1-1.62-.19-2.48-40.41,1.62-80.73-.38-119.91-.29.1-1.05.29-2,.38-2.95,7.53,2.38,16.2.29,16.2.29,0,0,8.48,2.95,15.54,0,0,0,4.19,2.38,8.01-1.05,0,0,21.26,8.67,30.02-5.34.19-.19.48-.1.48.19,0,2,.1,6,3.15,6.48.19,0,.38-.19.29-.38-.67-1.05-1.72-4.19.76-11.34.1-.29.57-.19.48,0-.19,4.19.38,13.92,9.34,11.63,0,0,9.15,3.62,22.78-.19,0,0,2.67,2,10.39,1.24h0c.57,0,1.14-.1,1.72-.19,0-.48-.19-1.05-.19-1.53v-.67c-2.76-16.58-12.01-30.98-25.07-40.51-.29.86-.67,1.62-1.05,2.38,12.68,8.96,21.73,22.69,24.4,38.7-4.67,1.14-8.39-.86-8.96-1.24h-.19c-4.58,2.57-7.91,0-8.58-.67h-.19c-4.77,4-14.3,2.95-16.39-4.1,0-.29-.48-.29-.48,0-.19,1.14-.29,3.05.38,4.77,0,.19-.1.48-.29.38-9.63-3.15-2.48-18.11-1.72-19.35s2.95-7.72,4.77-11.06c.76-1.53,7.34-9.91,7.82-18.68,0-.95,0-2.29-.86-2.86-.76-.48-1.81-.29-2.19-.29-1.14.19-1.33.76-2.38,1.14-1.14.38-1.72,0-2.76,0s-2.1.76-4.1,2c-.67.38-1.24.76-1.62,1.05-1.53-.57-3.72-1.33-6.39-2.1,0,0-8.01-2.19-16.39-2.19-34.89.19-63.1,28.5-63.1,63.39h126.29v-2.48h0l-.1-.1ZM108.04,47.23c-.67,2.67-1.05,5.15-1.24,7.34-.95,0-1.81-.19-2.57-.38.19-1.43.57-3.15.95-4.96.19-.76.67-2.76,1.53-5.24,0,0,2.95-8.77,8.48-15.92,0,0,.1-.19.19-.29.57.29,1.05.67,1.62.95,0,0-.1.19-.19.29-.29.38-.57.86-.86,1.24-2.67,3.72-5.91,9.34-7.82,16.78h0l-.1.19ZM113.28,27.12c-1.62,2-4.96,6.39-8.01,12.58-1.62,3.34-3.43,8.01-4.77,13.73-1.33-.38-2.19-.76-2.19-.76,0,0,2.67-13.25,13.34-26.59.57.29,1.14.57,1.72.86,0,0,0,.1-.19.19h.1ZM110.61,54.76c0-1.62.29-3.53.67-5.72,1.43-7.91,4.58-13.34,6.1-16.01.48-.86,1.05-1.72,1.53-2.38,0,0,0-.1.1-.19.48.29.95.67,1.33.95v.1c-1.81,2.86-4.86,8.67-6.1,16.97-.19,1.53-.48,3.72-.48,6.2-1.05.1-2.1.19-3.15.19h0v-.1ZM123.48,34.65c-3.81,8.58-2.38,18.4-2.38,18.4-.86.29-1.81.57-2.67.76-.38-5.05.19-9.06.67-11.82,1.05-5.43,2.76-8.48,3.24-9.25h0c2.1,1.33,3.81,2.1,5.72,1.72-1.81,1.72-4.58.19-4.58.19h0ZM137.58,26.55c-.19.19-.57.86-1.43,1.05-1.14.29-2.19-.29-2.19-.38h.48c.29,0,.76,0,1.33-.29,0,0-.1,0-.19-.1-.48-.29-.57-.95-.29-1.43s.95-.57,1.43-.29c.29.19.48.57.48.86.1-.1.19-.29.38-.38.48-.57.48-1.14.57-1.05.1,0,.19,1.05-.38,2h-.19ZM143.4,5.48h1.43c.29,0,.57,0,.95-.19,1.14-.38,1.72-1.14,2.86-.95.19,0,.57,0,.86.29.76.67.19,2.29,0,3.34-1.14,3.81-2.38,7.15-5.81,10.68-.67.67-1.72,2-3.34,2.76s-3.15.48-5.43,1.72c-3.34,1.91-3.24,4.67-6.2,4.67s-1.33-.19-2-.48c1.33-1.33,3.62-3.43,6.77-5.62.57-.48,1.91-1.14,4.38-2.67,2.57-1.53,4-2.48,5.62-4,.48-.48,1.33-1.24,2.29-2.57.67-.86,1.43-2.19,1.33-2.29-.19-.19-1.62,2.19-4.58,4.48-1.53,1.14-3.24,2.1-5.62,3.43-1.05.57-1.91,1.05-3.43,2-.86.48-1.81,1.05-2.57,1.53-1.24.76-2.95,2-4.96,3.81,0,0-.57.48-.95.86-.48-.29-.95-.67-1.43-1.05,1.53-1.43,2.86-2.57,3.81-3.24,0,0,.1,0,.19-.1,3.24-2.48,6.1-4.19,8.2-5.34,3.24-1.81,4.77-2.76,5.91-3.62.86-.67,1.43-1.24,1.72-1.43,1.43-1.43,2.48-2.76,3.24-3.72.1-.19.67-1.05.57-1.14,0,0-.57.38-1.05.95-.86.95-2.1,2.19-3.72,3.53-.76.57-1.33,1.05-1.72,1.24-3.24,2.19-7.15,4-7.63,4.29-5.34,2.48-9.44,5.81-11.15,7.34-.38-.38-.86-.76-1.24-1.14,3.05-2.67,7.05-5.05,7.05-5.05.57-.38,1.14-.67,1.62-.95,1.53-.86,2.67-1.43,3.15-1.72,3.24-1.72,8.2-4.29,10.2-6.77.1-.19.67-.86.57-.95,0,0-.67.48-1.33.86-.95.76-2,1.43-3.05,2.1,0,0-.19.1-.38.29-.76.48-2,1.14-6,3.05,0,0-2.1.95-4.58,2.19-3.81,2-6.77,4.1-8.67,5.62-.38-.48-.86-.95-1.24-1.33,3.81-3.15,7.82-5.05,11.63-7.15,2.29-1.24,4.1-2.19,5.53-3.05l2.29-1.33h0c.57-.38,1.05-.67,1.33-.86,2.19-1.43,3.05-2.38,4.48-2.38h.57l-.48.1ZM116.33,7.01c6,0,11.82.86,17.35,2.57-2.67,1.53-5.34,2.76-6.96,3.62-2.86,1.43-6,2.95-10.01,5.81,0,0-1.14-1.33-2.48-1.81-.95-.38-1.43-.19-2.38-.67-1.14-.57-1.05-1.05-2-1.53-1.33-.57-1.91.29-3.81-.1-1.62-.29-1.72-1.05-2.86-.95-1.05,0-1.24.67-2.57.76h-.19c-1.05,0-1.24-.38-2.19-.19-1.14.19-1.14.76-2.48,1.14-1.14.38-1.33,0-2.38.29-1.43.48-1.14,1.05-2.76,1.62-.86.29-1.43.38-1.62.95-.19.38-.19.86,0,1.14.19.29.38.38.57.48.95.38,5.72,1.14,10.77,2.29,3.91.76,7.15,1.72,9.91,2.95-1.43,1.53-2.67,3.24-3.91,4.96-.29,0-.57-.19-1.24-.29-1.62-.19-2.1.38-3.72.19-1.05-.1-1.05-.38-1.91-.38-1.05,0-1.14.38-2.38.57-1.43.19-1.62-.29-2.67,0-.95.29-.86.67-2.1,1.14-1.24.48-1.43.1-2.38.57s-.86.95-1.81,1.33c-.76.29-1.05.1-1.62.48-.48.29-.48.48-1.14,1.14s-1.05.67-1.33.95c-.1.1-.19.19-.29.29-.38.48-.57,1.24-.38,1.53.29.76,2.95.19,6.1-.19.57,0,5.81-.67,11.72-.57h.95c-3.91,7.34-6.1,13.82-6.1,13.82-1.05,2.67-3.15,3.24-4.1,3.34-.19,0-.38-.19-.29-.38.95-1.72,1.05-4.38.95-5.81,0-.29-.38-.38-.48-.1-5.91,10.68-14.87,6.58-15.82,6.1h-.19c-.76.38-10.48,2.57-18.21.19,5.81-26.97,29.74-47.28,58.43-47.28Z"/>
  <g>
    <path class="st0" d="M197.06,82.31h-14.01v.67c1.43.38,1.62,1.91,1.62,5.34v16.3c0,3.43-.19,4.86-1.62,5.34v.67h9.25v-.67c-1.43-.38-1.62-1.91-1.62-5.34v-5.34h6.48c.48.19.86.48.95.57s.29.29.48.57h.67v-7.63h-.67c0,.19-.19.48-.48.67-.38.38-.86.48-.95.57h-6.48v-7.05h6.58c1.53,0,2.38.38,2.57,1.14v.48h.86l1.72-6.77h-.19c-2.48.19-4.38.19-5.05.19h0l-.1.29Z"/>
    <path class="st0" d="M171.8,82.31v.67c1.43.38,1.62,1.91,1.62,5.34v16.3c0,3.43-.19,4.86-1.62,5.34v.67h9.25v-.67c-1.43-.38-1.62-1.91-1.62-5.34v-16.3c0-3.43.19-4.86,1.62-5.34v-.67h-9.25Z"/>
    <path class="st0" d="M223.08,103.66c-1.81,1.43-4.58,2.19-7.43,2.19s-3.81-.29-4.1-.48v-6.1h6.48c.48.19.86.48.95.57s.29.29.48.57h.67v-7.63h-.67c0,.19-.19.48-.48.67-.38.38-.86.48-1.05.57h-6.48v-7.05h6.58c1.53,0,2.38.38,2.57,1.14v.48h.86l1.72-6.77h-.19c-1.72.19-3.34.19-5.05.19h-14.01v.67c1.43.38,1.62,1.91,1.62,5.34v16.3c0,3.43-.19,4.86-1.62,5.34v.67h18.11l1.72-6.96h-.67v.29Z"/>
    <path class="st0" d="M169.99,103.66c-1.81,1.43-4.96,2.19-7.72,2.19s-3.91-.38-4.19-.48v-17.16c0-3.43.19-4.86,1.62-5.34v-.67h-9.25v.67c1.43.38,1.62,1.91,1.62,5.34v16.3c0,3.43-.19,4.86-1.62,5.34v.67h18.4l1.72-6.96h-.67l.1.1Z"/>
    <path class="st0" d="M19.01,82.59c-1.24-.29-2.38-.38-3.15-.29H5v.67c1.43.38,1.62,1.91,1.62,5.34v16.3c0,3.43-.19,4.86-1.62,5.34v.67h9.06v-.67c-1.43-.38-1.62-1.91-1.62-5.34v-4.58h.29c4.38,1.72,8.96.86,11.53-2,2.1-2.38,2.19-5.53,2.19-6,0-2.67-1.05-4.58-1.33-5.05-1.91-3.24-5.24-4.1-6.1-4.29h0v-.1ZM19.11,96.6c-1.24,1.14-3.15,1.91-5.34,1.91h-1.24v-11.34h1.43c3.53,0,5.72,1.14,6.58,3.15h0c.86,2,.48,4.58-1.33,6.29h-.1Z"/>
    <path class="st0" d="M99.55,82.31h-14.01v.67c1.43.38,1.62,1.91,1.62,5.34v16.3c0,3.43-.19,4.86-1.62,5.34v.67h9.25v-.67c-1.43-.38-1.62-1.91-1.62-5.34v-5.34h6.48c.48.19.86.48.95.57s.29.29.48.57h.67v-7.63h-.67c0,.19-.19.48-.48.67-.38.38-.76.48-.95.57h-6.48v-7.05h6.58c1.53,0,2.38.38,2.57,1.14v.48h.86l1.72-6.77h-.19c-2.48.19-4.38.19-5.05.19h0l-.1.29Z"/>
    <path class="st0" d="M74.29,82.31v.67c1.43.38,1.62,1.91,1.62,5.34v16.3c0,3.43-.19,4.86-1.62,5.34v.67h9.25v-.67c-1.43-.38-1.62-1.91-1.62-5.34v-16.3c0-3.43.19-4.86,1.62-5.34v-.67h-9.25Z"/>
    <path class="st1" d="M72.58,101.37v.19l-2.1,8.2c-.19.19-1.91,1.14-7.53,1.14s-7.53-1.43-10.2-4.1-4.1-6.39-4.1-10.39,1.43-7.72,4.1-10.29c2.57-2.57,6.2-4,10.2-4s2.86.19,3.72.38c1.14.19,1.62.29,2.86-.38l.57.19,2.19,8.86v.19l-.48.29c-.19-.19-.38-.29-.48-.48-.48-.48-.95-.86-1.53-1.24-2-1.62-4-2.38-6.39-2.38-5.15,0-8.96,3.81-8.96,9.15s0,.29,0,.38c.29,4.96,3.91,8.58,8.96,8.58s4-.57,5.72-1.72c.86-.57,1.62-1.24,2.48-2.1l.48-.48.48.19h0v-.19Z"/>
    <path class="st1" d="M140.92,101.37v.19l-2.1,8.2c-.19.19-1.91,1.14-7.53,1.14s-7.53-1.43-10.2-4.1c-2.67-2.67-4.1-6.39-4.1-10.39s1.43-7.72,4.1-10.29c2.57-2.57,6.2-4,10.2-4s2.86.19,3.72.38c1.14.19,1.62.29,2.86-.38l.57.19,2.19,8.86v.19l-.48.29c-.19-.19-.38-.29-.48-.48-.48-.48-.95-.86-1.53-1.24-2-1.62-4-2.38-6.39-2.38-5.15,0-8.96,3.81-8.96,9.15s0,.29,0,.38c.29,4.96,3.91,8.58,8.96,8.58s4-.57,5.72-1.72c.86-.57,1.62-1.24,2.48-2.1l.48-.48.48.19h0v-.19Z"/>
    <path class="st0" d="M47.61,104.51l-8.39-22.21h-7.82v.86h.29c.1.1.29.19.38.19h0c.19,0,.38.19.48.38.29.38.48.86,0,2-.19.67-6.96,18.78-6.96,18.78-.67,1.81-1.53,4.29-2.67,5.05-.19,0-.29.19-.48.19l-.38.19v.67h8.96v-.67s-.67-.1-.86-.38c-.57-.48-.67-1.24,0-3.43l1.05-3.15h9.44c.19.57.48,1.53.95,2.95.29.86.67,1.91.67,2.76,0,.48-.38.95-.86,1.14h-.19v.76h9.44v-.67c-.1,0-.29,0-.48-.19-.57-.38-.86-.86-1.05-1.24-.86-1.81-1.62-3.62-1.81-4h.29ZM32.93,98.51l3.24-8.67,3.15,8.67h-6.39Z"/>
    <path class="st0" d="M106.32,82.31v.67c1.43.38,1.62,1.91,1.62,5.34v16.3c0,3.43-.19,4.86-1.62,5.34v.67h9.25v-.67c-1.43-.38-1.62-1.91-1.62-5.34v-16.3c0-3.43.19-4.86,1.62-5.34v-.67h-9.25Z"/>
  </g>
</svg>